HIERARCHY
ROOT Hips
{
  OFFSET 263.056 91.6644 -274.608
  CHANNELS 6 Xposition Yposition Zposition Zrotation Xrotation Yrotation
  JOINT LeftUpLeg
  {
    OFFSET 8.64259 1.95398 -2.38835
    CHANNELS 3 Zrotation Xrotation Yrotation
    JOINT LeftLeg
    {
      OFFSET 43.7702 0 0
      CHANNELS 3 Zrotation Xrotation Yrotation
      JOINT LeftFoot
      {
        OFFSET 40.6238 0 0
        CHANNELS 3 Zrotation Xrotation Yrotation
        JOINT LeftToeBase
        {
          OFFSET 12.7242 0 0
          CHANNELS 3 Zrotation Xrotation Yrotation
          End Site
          {
            OFFSET 0 0 0
          }
        }
      }
    }
  }
  JOINT RightUpLeg
  {
    OFFSET -8.2249 1.95398 -2.59336
    CHANNELS 3 Zrotation Xrotation Yrotation
    JOINT RightLeg
    {
      OFFSET 43.5653 0 0
      CHANNELS 3 Zrotation Xrotation Yrotation
      JOINT RightFoot
      {
        OFFSET 40.6238 0 0
        CHANNELS 3 Zrotation Xrotation Yrotation
        JOINT RightToeBase
        {
          OFFSET 12.7242 0 0
          CHANNELS 3 Zrotation Xrotation Yrotation
          End Site
          {
            OFFSET 0 0 0
          }
        }
      }
    }
  }
  JOINT Spine
  {
    OFFSET 0.165834 0.87714 6.61349
    CHANNELS 3 Zrotation Xrotation Yrotation
    JOINT Spine1
    {
      OFFSET 7.38963 1.71661e-005 0
      CHANNELS 3 Zrotation Xrotation Yrotation
      JOINT Spine2
      {
        OFFSET 11.9445 1.14441e-005 0
        CHANNELS 3 Zrotation Xrotation Yrotation
        JOINT Spine3
        {
          OFFSET 14.7254 4.19617e-005 0
          CHANNELS 3 Zrotation Xrotation Yrotation
          JOINT Spine4
          {
            OFFSET 10.9679 0 0
            CHANNELS 3 Zrotation Xrotation Yrotation
            JOINT RightShoulder
            {
              OFFSET 2.46616 -1.6653 3.69651
              CHANNELS 3 Zrotation Xrotation Yrotation
              JOINT RightArm
              {
                OFFSET 13.0012 0 0
                CHANNELS 3 Zrotation Xrotation Yrotation
                JOINT RightForeArm
                {
                  OFFSET 28.7848 1.52588e-005 0
                  CHANNELS 3 Zrotation Xrotation Yrotation
                  JOINT RightHand
                  {
                    OFFSET 26.5688 1.52588e-005 0
                    CHANNELS 3 Zrotation Xrotation Yrotation
                    End Site
                    {
                      OFFSET 0 0 0
                    }
                  }
                }
              }
            }
            JOINT LeftShoulder
            {
              OFFSET 2.38034 -1.29275 -3.7523
              CHANNELS 3 Zrotation Xrotation Yrotation
              JOINT LeftArm
              {
                OFFSET 16.3182 6.10352e-005 0
                CHANNELS 3 Zrotation Xrotation Yrotation
                JOINT LeftForeArm
                {
                  OFFSET 27.0901 0 0
                  CHANNELS 3 Zrotation Xrotation Yrotation
                  JOINT LeftHand
                  {
                    OFFSET 24.5451 1.52588e-005 0
                    CHANNELS 3 Zrotation Xrotation Yrotation
                    End Site
                    {
                      OFFSET 0 0 0
                    }
                  }
                }
              }
            }
            JOINT Neck
            {
              OFFSET 5.0226 -0.0266342 0
              CHANNELS 3 Zrotation Xrotation Yrotation
              JOINT Head
              {
                OFFSET 6.69364 2.86102e-005 0
                CHANNELS 3 Zrotation Xrotation Yrotation
                End Site
                {
                  OFFSET 0 0 0
                }
              }
            }
          }
        }
      }
    }
  }
}
MOTION
Frames:	14
Frame Time:	0.0416667
-117.847 58.5278 -121.893 94.0091 2.58127 107.391 165.202 35.0464 103.551 -115.273 35.0481 -1.54779 35.8654 -11.1214 5.60954 49.5066 53.6348 51.8414 129.401 64.0184 121.347 -98.4042 11.8547 -2.55798 75.6377 -5.29312 -3.76529 38.3508 0.835715 11.5587 0.792899 12.4973 -93.5773 1.82848 0.208563 -6.9724 -9.86119 -0.097763 -6.97483 -32.2579 2.28985 -6.5907 -12.2453 2.28983 -6.5907 82.6423 -42.4268 -114.898 -8.614 8.20371 3.81744 -14.9696 -11.3566 -51.7586 -20.4638 -1.73651 5.42131 -98.6718 -37.2168 60.8397 -37.3779 3.34025 18.5958 10.1858 6.96752 -47.2683 12.0848 0.597249 1.04874 2.78295 -26.5166 -0.604171 18.9004 -27.9869 -12.4728 
-117.841 58.5155 -121.951 93.9119 2.63567 107.356 165.132 35.079 103.541 -115.197 34.6844 -1.50486 36.2014 -11.0705 4.28521 48.3914 53.3068 53.8891 129.476 64.1596 121.189 -98.4035 11.045 -2.62952 75.2398 -5.15604 -3.70091 39.0745 0.906757 9.86039 0.799445 12.4985 -93.5714 1.83051 0.223715 -6.95985 -9.85904 -0.0820402 -6.96295 -32.2571 2.30056 -6.5742 -12.2444 2.30058 -6.57418 82.7457 -42.9629 -114.507 -8.86889 7.79957 3.56613 -14.825 -11.5389 -51.8681 -20.5039 -1.77319 5.62404 -99.2953 -37.5073 59.9429 -36.8126 3.29484 19.1862 9.16549 5.89507 -47.3374 14.5798 0.960912 2.69218 2.73567 -26.3371 -0.400877 19.1682 -27.8439 -12.3134 
-117.782 58.5412 -121.992 93.6118 3.05034 107.154 165.021 35.5056 103.168 -115.273 34.6849 -1.49693 35.4761 -11.1324 5.99294 51.3228 55.1904 49.4145 129.048 64.3479 121.1 -98.4729 10.7742 -2.74019 75.4338 -5.18687 -3.71938 39.1089 0.907119 9.72072 0.75486 12.483 -93.5705 1.85871 0.134359 -6.96057 -9.83083 -0.17137 -6.95978 -32.2278 2.21549 -6.60158 -12.2151 2.2155 -6.60158 82.8167 -42.8623 -114.434 -8.50977 7.89663 3.74878 -14.8035 -11.2934 -52.1242 -19.8357 -1.70697 5.54216 -99.2399 -37.3994 59.9843 -36.71 2.99184 19.2992 8.78657 5.41945 -46.904 13.7169 0.944574 2.94942 3.18915 -26.1483 0.0290858 18.8625 -27.7121 -12.4465 
-117.733 58.5377 -122.016 93.2681 3.81139 106.916 164.466 35.9261 102.821 -115.381 34.1245 -1.42191 35.7364 -10.8133 5.56032 55.285 60.0261 46.0493 128.138 64.4833 121.083 -98.6457 10.6968 -2.89303 75.938 -5.30574 -3.78335 38.4157 0.800803 9.49737 0.687797 12.45 -93.589 1.91971 -0.008477 -7.00103 -9.77002 -0.315811 -6.99394 -32.1638 2.09125 -6.6829 -12.1511 2.09125 -6.68289 82.7721 -42.7792 -114.541 -8.2166 7.84624 4.1142 -15.6873 -11.5139 -52.6097 -19.6941 -1.72472 5.75019 -99.3859 -37.5053 59.7931 -36.5355 2.91128 19.5275 8.80708 5.5318 -46.6157 13.4735 0.913735 2.83651 2.92555 -26.2254 -0.131855 19.1903 -27.833 -12.6458 
-117.609 58.619 -122.032 92.9409 4.59419 106.574 164.168 36.3734 102.238 -115.445 34.186 -1.40553 36.4042 -9.8972 7.07147 49.8395 55.9352 52.8623 127.603 64.5304 120.591 -98.6957 10.4992 -3.03642 76.4663 -5.40663 -3.83243 37.9835 0.744132 9.8489 0.614694 12.4358 -93.6028 1.94311 -0.160694 -7.03192 -9.74675 -0.469278 -7.01816 -32.1377 1.95518 -6.75784 -12.125 1.95517 -6.75787 82.7722 -42.6656 -114.587 -8.01834 8.00341 4.00741 -14.9597 -11.2618 -51.7066 -19.9615 -1.69377 5.39895 -99.1595 -37.2389 60.0426 -37.0041 3.06275 19.4975 8.79487 5.65967 -46.3477 12.8434 0.854762 2.69831 3.13815 -26.3306 -0.373053 19.2252 -27.8574 -12.4553 
-117.546 58.5624 -122.068 92.5102 5.42956 106.253 163.605 36.6013 101.869 -115.287 34.0306 -1.39121 36.4832 -10.0019 6.07796 52.3073 59.569 50.8887 126.233 64.8053 120.652 -98.9902 10.1263 -3.22437 76.567 -5.32249 -3.83532 38.6607 0.835406 9.46625 0.53833 12.4074 -93.6073 1.99499 -0.31632 -7.04473 -9.69486 -0.625303 -7.02416 -32.0838 1.81048 -6.81656 -12.0711 1.81046 -6.81656 82.7173 -43.0438 -114.52 -8.20385 7.85512 4.03469 -15.518 -11.5451 -52.2455 -20.321 -1.77327 5.73259 -98.8774 -37.1506 60.4688 -37.2174 3.04412 19.5972 8.99828 5.80011 -46.4325 12.2525 0.735903 2.06696 3.80611 -26.4371 -0.256147 18.9386 -27.8922 -12.2387 
-117.428 58.5307 -122.078 92.211 6.35356 105.886 163.044 36.8285 101.37 -115.265 33.8063 -1.35039 36.2525 -10.0429 6.10319 51.2587 58.6677 52.1271 125.025 64.8842 120.436 -99.2446 9.65753 -3.45451 77.022 -5.42617 -3.89644 38.7439 0.845432 9.39592 0.442333 12.3794 -93.6184 2.04435 -0.513746 -7.07124 -9.64554 -0.82367 -7.04202 -32.0317 1.62997 -6.9008 -12.0191 1.62996 -6.90081 82.7606 -43.049 -114.448 -8.01982 8.29913 3.7903 -15.3716 -11.7653 -51.8331 -19.9772 -1.6587 5.20332 -98.7951 -37.4036 60.7205 -37.1539 3.49261 19.9719 9.30795 6.2043 -46.7714 11.2614 0.680076 2.07121 3.91313 -26.5065 -0.0424654 19.1229 -27.9944 -12.171 
-117.314 58.5073 -122.123 91.7483 7.38839 105.525 162.317 37.2046 100.9 -115.249 33.5528 -1.31246 36.274 -9.82665 6.23364 50.8367 58.4779 52.764 123.379 65.1735 120.494 -99.5911 9.31387 -3.65844 77.1486 -5.3734 -3.91582 38.8312 0.861022 9.50741 0.331987 12.353 -93.6211 2.09013 -0.736585 -7.08189 -9.59965 -1.04674 -7.04293 -31.9838 1.42045 -6.9775 -11.9711 1.42046 -6.97749 82.4629 -43.5817 -114.707 -8.8667 7.8714 3.9802 -14.9848 -11.499 -52.0699 -19.5119 -1.78115 6.1789 -98.3548 -37.6323 61.5523 -37.2896 3.46087 20.3008 9.49628 6.39515 -46.9273 11.7296 0.717837 2.15805 4.01806 -26.9222 -0.133117 19.0553 -28.4369 -12.5721 
-117.172 58.5125 -122.204 91.1958 8.47157 105.113 161.631 37.712 100.301 -115.269 32.3191 -1.17106 35.8829 -9.76244 5.57677 51.7949 58.8611 51.2968 121.241 65.3435 120.532 -99.9387 8.62021 -3.81572 77.9085 -5.49805 -3.99286 38.3996 0.802925 9.71642 0.255276 12.3136 -93.649 2.16275 -0.902768 -7.14003 -9.52722 -1.21531 -7.09375 -31.9079 1.27917 -7.08258 -11.8952 1.27918 -7.08258 82.6652 -43.2107 -114.535 -8.62602 7.85297 4.19099 -14.5225 -11.1373 -52.1858 -20.0228 -1.77479 5.84588 -98.3656 -37.7418 61.5829 -37.3036 2.97361 20.606 9.2391 5.99079 -46.6587 12.2849 0.774614 2.34932 4.27172 -27.1311 0.224625 18.8539 -28.6756 -12.6036 
-117.012 58.4828 -122.146 90.8138 9.66402 104.665 160.844 38.0198 99.767 -115.143 32.1308 -1.12468 35.0457 -10.1836 5.86531 52.3306 59.2834 50.6437 119.235 65.4886 120.49 -100.391 8.08108 -3.98658 78.55 -5.69541 -4.08559 37.934 0.741326 10.0934 0.141591 12.2679 -93.6599 2.24619 -1.13657 -7.16612 -9.44366 -1.45007 -7.10962 -31.822 1.06379 -7.17724 -11.8094 1.06378 -7.17724 82.6543 -43.3775 -114.484 -8.6278 7.87329 4.31057 -14.963 -11.1105 -52.682 -20.5898 -1.85124 6.03105 -98.1414 -37.8532 62.0028 -37.3884 3.07354 20.8991 9.25335 6.2912 -46.204 12.7506 0.841818 2.6457 4.10106 -27.1294 0.595764 18.5577 -28.8212 -13.2291 
-116.89 58.4374 -121.936 90.5714 10.5639 104.208 160.164 38.0154 99.4777 -114.991 32.7638 -1.20155 34.7763 -10.4403 6.55639 50.3379 56.9081 52.6004 117.629 65.6346 120.688 -100.82 8.0968 -4.13358 79.1204 -5.83712 -4.16852 37.9781 0.759979 10.761 0.0710692 12.2542 -93.6421 2.26987 -1.27123 -7.1339 -9.41967 -1.58319 -7.07153 -31.7989 0.925638 -7.18665 -11.7862 0.925642 -7.18664 82.74 -43.5597 -114.272 -8.56507 8.04006 3.84473 -14.6793 -11.1464 -52.4169 -21.0466 -1.92904 6.24948 -97.9805 -37.6827 62.1941 -37.2839 2.933 21.2088 8.99288 6.03987 -45.8162 12.3738 0.80417 2.53138 4.21604 -27.3448 0.097006 18.7877 -28.8614 -12.6424 
-116.766 58.4109 -121.676 90.3419 11.5542 103.872 159.354 38.1151 99.3599 -115.058 32.4865 -1.17738 34.7897 -10.2519 6.8131 50.879 57.0402 51.6751 115.824 65.5998 121.034 -101.225 8.058 -4.26538 79.6867 -5.99262 -4.25292 38.006 0.768738 10.9933 -0.030539 12.2354 -93.6442 2.30088 -1.47593 -7.14169 -9.38843 -1.788 -7.07036 -31.7667 0.732583 -7.25514 -11.754 0.732597 -7.25513 82.937 -43.5426 -113.963 -8.22586 8.08438 3.37677 -14.8952 -11.4621 -52.2707 -21.9062 -1.88547 5.61403 -97.5917 -37.8222 62.8992 -37.1437 3.27746 20.9285 8.73909 6.26794 -44.9412 12.1108 0.858519 3.08666 4.76049 -27.2814 0.716827 18.3608 -28.9416 -13.1819 
-116.636 58.4195 -121.266 90.4577 12.4845 103.339 158.892 38.1204 99.0084 -115.247 32.0842 -1.13232 35.2864 -9.43852 7.77489 47.0423 51.9909 55.8105 115.025 65.5558 120.737 -101.658 8.27953 -4.39328 80.1146 -6.1125 -4.32216 38.234 0.809118 11.1978 -0.115188 12.2098 -93.6393 2.34685 -1.64456 -7.13502 -9.3422 -1.95619 -7.05634 -31.7204 0.569672 -7.29907 -11.7077 0.569667 -7.29907 83.0708 -43.3683 -113.817 -7.7843 8.13991 3.7691 -15.0709 -11.6683 -53.5106 -21.0357 -1.91045 6.17317 -97.9372 -37.8606 62.3436 -37.1381 2.94136 21.1501 9.04152 6.638 -44.5693 12.6019 0.912679 3.25227 4.47215 -27.3109 0.474304 18.7778 -28.9353 -12.948 
-116.465 58.3196 -120.663 90.3951 12.8645 103.181 157.883 37.689 99.7071 -115.189 31.7499 -1.06687 35.4649 -9.6288 6.39971 49.8343 59.8947 55.4942 113.916 65.3715 121.611 -102.191 8.33358 -4.49408 80.5699 -6.38217 -4.41644 38.6721 0.872232 10.8533 -0.161574 12.1653 -93.6294 2.43348 -1.73627 -7.11658 -9.25531 -2.04702 -7.0339 -31.6342 0.476627 -7.30882 -11.6216 0.476623 -7.30883 82.9699 -43.394 -113.97 -7.47478 7.94932 3.53913 -15.0765 -10.9492 -53.5692 -21.6584 -1.945 6.04492 -97.7865 -37.8971 62.6088 -37.2036 3.14735 21.0312 8.8151 6.74124 -43.8813 12.5911 0.922753 3.33473 4.55812 -27.088 0.299313 19.1961 -28.6638 -12.5802 
